HIERARCHY
ROOT Hips
{
	OFFSET -0.001795 -0.223333 0.028219
	CHANNELS 6 Xposition Yposition Zposition Zrotation Yrotation Xrotation 
	JOINT LeftUpLeg
	{
		OFFSET 0.069520 -0.091406 -0.006815
		CHANNELS 3 Zrotation Yrotation Xrotation
		JOINT LeftLeg
		{
			OFFSET 0.034277 -0.375199 -0.004496
			CHANNELS 3 Zrotation Yrotation Xrotation
			JOINT LeftFoot
			{
				OFFSET -0.013596 -0.397961 -0.043693
				CHANNELS 3 Zrotation Yrotation Xrotation
				JOINT LeftToe
				{
					OFFSET 0.026358 -0.055791 0.119288
					CHANNELS 3 Zrotation Yrotation Xrotation
					End Site
					{
						OFFSET 0.000000 0.000000 0.000000
					}
				}
			}
		}
	}
	JOINT RightUpLeg
	{
		OFFSET -0.067670 -0.090522 -0.004320
		CHANNELS 3 Zrotation Yrotation Xrotation
		JOINT RightLeg
		{
			OFFSET -0.038290 -0.382569 -0.008850
			CHANNELS 3 Zrotation Yrotation Xrotation
			JOINT RightFoot
			{
				OFFSET 0.015774 -0.398415 -0.042312
				CHANNELS 3 Zrotation Yrotation Xrotation
				JOINT RightToe
				{
					OFFSET -0.025372 -0.048144 0.123348
					CHANNELS 3 Zrotation Yrotation Xrotation
					End Site
					{
						OFFSET 0.000000 0.000000 0.000000
					}
				}
			}
		}
	}
	JOINT Spine
	{
		OFFSET -0.002533 0.108963 -0.026696
		CHANNELS 3 Zrotation Yrotation Xrotation
		JOINT Spine1
		{
			OFFSET 0.005487 0.135180 0.001092
			CHANNELS 3 Zrotation Yrotation Xrotation
			JOINT Spine2
			{
				OFFSET 0.001457 0.052922 0.025425
				CHANNELS 3 Zrotation Yrotation Xrotation
				JOINT Neck
				{
					OFFSET -0.002778 0.213870 -0.042857
					CHANNELS 3 Zrotation Yrotation Xrotation
					JOINT Head
					{
						OFFSET 0.005152 0.064970 0.051349
						CHANNELS 3 Zrotation Yrotation Xrotation
						End Site
						{
							OFFSET 0.000000 0.000000 0.000000
						}
					}
				}
				JOINT LeftShoulder
				{
					OFFSET 0.078845 0.121749 -0.034090
					CHANNELS 3 Zrotation Yrotation Xrotation
					JOINT LeftArm
					{
						OFFSET 0.090977 0.030469 -0.008868
						CHANNELS 3 Zrotation Yrotation Xrotation
						JOINT LeftForeArm
						{
							OFFSET 0.259612 -0.012772 -0.027456
							CHANNELS 3 Zrotation Yrotation Xrotation
							JOINT LeftHand
							{
								OFFSET 0.249234 0.008986 -0.001171
								CHANNELS 3 Zrotation Yrotation Xrotation
								End Site
								{
									OFFSET 0.000000 0.000000 0.000000
								}
							}
						}
					}
				}
				JOINT RightShoulder
				{
					OFFSET -0.081759 0.118833 -0.038615
					CHANNELS 3 Zrotation Yrotation Xrotation
					JOINT RightArm
					{
						OFFSET -0.096012 0.032551 -0.009143
						CHANNELS 3 Zrotation Yrotation Xrotation
						JOINT RightForeArm
						{
							OFFSET -0.253742 -0.013329 -0.021401
							CHANNELS 3 Zrotation Yrotation Xrotation
							JOINT RightHand
							{
								OFFSET -0.255298 0.007772 -0.005559
								CHANNELS 3 Zrotation Yrotation Xrotation
								End Site
								{
									OFFSET 0.000000 0.000000 0.000000
								}
							}
						}
					}
				}
			}
		}
	}
}
MOTION
Frames: 6
Frame Time: 0.050000
0.000000 0.944884 0.000000 -1.222585 2.971987 3.507888 -0.706968 0.379368 3.832921 1.483702 0.229909 -8.462728 -2.009552 -2.095970 3.872508 0.000000 0.000000 0.000000 4.185529 -0.384634 1.884217 -0.619821 -0.266892 -7.253449 3.644706 5.877051 5.591206 0.000000 0.000000 0.000000 2.579836 0.074612 -2.093885 -0.315976 0.079015 1.925146 -2.122609 0.905647 6.698404 3.899908 -0.447686 -20.390742 0.000000 0.000000 0.000000 -26.323471 -8.562056 1.701677 -27.006515 5.615783 -3.978966 11.649511 -11.877698 -0.771965 0.000000 0.000000 0.000000 21.068263 6.667875 2.721280 30.526836 -2.670972 -3.784946 -10.740511 18.377576 -0.840715 0.000000 0.000000 0.000000 
-0.000615 0.943301 0.001675 -1.301516 2.657150 3.965140 -0.136149 0.376660 4.173417 0.708852 0.305563 -9.903410 -1.998509 -1.685736 4.661194 0.000000 0.000000 0.000000 4.021582 -0.302787 1.303566 -0.141763 -0.299513 -7.507207 3.589019 5.991500 5.130257 0.000000 0.000000 0.000000 3.238504 0.096739 -2.544542 -0.815344 0.276490 3.637012 -2.862955 1.201991 5.294163 4.108392 -0.201793 -23.122067 0.000000 0.000000 0.000000 -24.376616 -9.401978 2.153842 -28.042156 5.324608 -4.006722 13.174380 -9.866838 -0.774436 0.000000 0.000000 0.000000 20.933497 5.409390 2.032184 30.795544 -2.621850 -3.750299 -12.308313 18.943002 -1.079145 0.000000 0.000000 0.000000 
-0.001249 0.941993 0.003422 -1.166544 2.321779 4.137634 0.150910 0.351703 4.077832 0.341369 0.287488 -9.103258 -2.057554 -2.280064 3.781656 0.000000 0.000000 0.000000 3.914075 -0.342416 1.596926 0.023206 -0.334259 -8.182850 4.071658 7.312819 4.761138 0.000000 0.000000 0.000000 3.792163 0.082870 -2.398449 -1.404350 0.640441 1.018272 -2.639791 1.139033 7.551718 4.355339 -0.414399 -23.049626 0.000000 0.000000 0.000000 -23.078052 -9.570545 2.509615 -28.412768 5.514687 -4.256559 12.508868 -9.809325 -0.703681 0.000000 0.000000 0.000000 20.005622 6.597896 2.688369 30.760987 -2.741081 -3.865393 -12.975919 18.928733 -1.181169 0.000000 0.000000 0.000000 
-0.002198 0.941307 0.005322 -1.183372 2.207099 4.059756 0.275279 0.406708 4.811731 0.177259 0.309237 -9.652033 -2.339791 -2.733253 3.992245 0.000000 0.000000 0.000000 3.904263 -0.433954 2.262264 0.416851 -0.381605 -9.036836 4.594491 8.431074 4.909112 0.000000 0.000000 0.000000 3.961215 0.101572 -2.644856 -1.651272 0.747530 1.762698 -2.437899 1.240157 6.669754 3.925448 -0.127012 -23.443312 0.000000 0.000000 0.000000 -24.250544 -10.220144 2.813865 -26.826420 5.853231 -3.999002 13.200107 -8.156952 -0.627116 0.000000 0.000000 0.000000 19.772740 7.243177 3.017557 29.628940 -3.764913 -3.865219 -13.380567 18.538147 -1.215337 0.000000 0.000000 0.000000 
-0.003353 0.940847 0.007247 -1.062407 2.139980 3.793955 0.117913 0.469942 5.410069 0.257649 0.303229 -9.503674 -2.632985 -3.378790 3.877414 0.000000 0.000000 0.000000 4.083698 -0.522207 2.846842 -0.096147 -0.377750 -9.301764 4.778483 8.966868 4.744095 0.000000 0.000000 0.000000 4.175124 0.107971 -2.676907 -1.638586 0.738965 1.958304 -2.841643 1.589140 5.898779 4.344326 -0.451749 -21.963398 0.000000 0.000000 0.000000 -23.826377 -10.593922 2.868692 -25.628155 5.596219 -3.689895 12.742481 -7.323239 -0.539014 0.000000 0.000000 0.000000 19.499405 7.145260 3.043489 29.156076 -3.582948 -3.751055 -12.864216 17.752659 -1.072985 0.000000 0.000000 0.000000 
-0.004493 0.939853 0.009110 -0.880127 2.248731 3.548838 -0.188849 0.517976 5.704175 0.699808 0.278439 -9.091600 -2.933206 -4.355484 3.198885 0.000000 0.000000 0.000000 3.917749 -0.573952 3.308508 0.038558 -0.373550 -9.106248 4.585691 8.997245 4.036919 0.000000 0.000000 0.000000 4.003445 0.105888 -2.606162 -1.579513 0.702687 2.313200 -2.761186 1.547708 5.735108 3.943499 -0.237539 -21.930255 0.000000 0.000000 0.000000 -23.872119 -10.815727 2.992506 -25.092698 4.288532 -3.376283 13.112769 -5.937092 -0.450501 0.000000 0.000000 0.000000 18.872851 7.763878 3.359894 29.250007 -3.087208 -3.650619 -13.297189 16.852491 -1.056114 0.000000 0.000000 0.000000 
